<?xml version="1.0" encoding="UTF-8" standalone="no"?>
<svg
   width="358.43mm"
   height="166.99mm"
   viewBox="0.0 0.0 358.43 166.99"
   version="1.1"
   id="svg112"
   sodipodi:docname="octogone_3mm.svg"
   inkscape:version="1.2.1 (9c6d41e410, 2022-07-14)"
   xmlns:inkscape="http://www.inkscape.org/namespaces/inkscape"
   xmlns:sodipodi="http://sodipodi.sourceforge.net/DTD/sodipodi-0.dtd"
   xmlns="http://www.w3.org/2000/svg"
   xmlns:svg="http://www.w3.org/2000/svg"
   xmlns:rdf="http://www.w3.org/1999/02/22-rdf-syntax-ns#"
   xmlns:cc="http://creativecommons.org/ns#"
   xmlns:dc="http://purl.org/dc/elements/1.1/">
  <defs
     id="defs116" />
  <sodipodi:namedview
     id="namedview114"
     pagecolor="#ffffff"
     bordercolor="#000000"
     borderopacity="0.25"
     inkscape:showpageshadow="2"
     inkscape:pageopacity="0.0"
     inkscape:pagecheckerboard="0"
     inkscape:deskcolor="#d1d1d1"
     inkscape:document-units="mm"
     showgrid="false"
     inkscape:zoom="0.92419256"
     inkscape:cx="677.34802"
     inkscape:cy="315.95147"
     inkscape:window-width="3072"
     inkscape:window-height="1659"
     inkscape:window-x="0"
     inkscape:window-y="32"
     inkscape:window-maximized="1"
     inkscape:current-layer="svg112" />
  <!--
RegularBox - Box with regular polygon as base


For short side walls that don't fit a connecting finger reduce *surroundingspaces* and *finger* in the Finger Joint Settings.

The lids needs to be glued. For the bayonet lid all outside rings attach to the bottom, all inside rings to the top.



Created with Boxes.py (https://festi.info/boxes.py)
Creation date: 2022-11-24 13:44:22
Command line (remove spaces between dashes): boxes RegularBox - -FingerJoint_angle=90.0 - -FingerJoint_style=rectangular - -FingerJoint_surroundingspaces=1.0 - -FingerJoint_edge_width=1.0 - -FingerJoint_extra_length=0.0 - -FingerJoint_finger=2.0 - -FingerJoint_play=0.0 - -FingerJoint_space=2.0 - -FingerJoint_width=1.0 - -h=32 - -outside=0 - -radius=50.0 - -n=8 - -top=none - -alignment_pins=1.0 - -thickness=3.0 - -format=svg - -tabs=0.0 - -debug=0 - -labels=0 - -labels=1 - -reference=100 - -inner_corners=loop - -burn=0.1
Url: http://www.festi.info/RegularBox?FingerJoint_angle=90.0&FingerJoint_style=rectangular&FingerJoint_surroundingspaces=1.0&FingerJoint_edge_width=1.0&FingerJoint_extra_length=0.0&FingerJoint_finger=2.0&FingerJoint_play=0.0&FingerJoint_space=2.0&FingerJoint_width=1.0&h=32&outside=0&radius=50.0&n=8&top=none&alignment_pins=1.0&thickness=3.0&format=svg&tabs=0.0&debug=0&labels=0&labels=1&reference=100&inner_corners=loop&burn=0.1&render=1
SettingsUrl: http://www.festi.info/RegularBox?FingerJoint_angle=90.0&FingerJoint_style=rectangular&FingerJoint_surroundingspaces=1.0&FingerJoint_edge_width=1.0&FingerJoint_extra_length=0.0&FingerJoint_finger=2.0&FingerJoint_play=0.0&FingerJoint_space=2.0&FingerJoint_width=1.0&h=32&outside=0&radius=50.0&n=8&top=none&alignment_pins=1.0&thickness=3.0&format=svg&tabs=0.0&debug=0&labels=0&labels=1&reference=100&inner_corners=loop&burn=0.1
-->
  <title
     id="title76">RegularBox</title>
  <metadata
     id="metadata78">
    <rdf:RDF>
      <cc:Work>
        <dc:title>Box - RegularBox</dc:title>
        <dc:date>2022-11-24 13:44:22</dc:date>
        <dc:source>http://www.festi.info/RegularBox?FingerJoint_angle=90.0&amp;FingerJoint_style=rectangular&amp;FingerJoint_surroundingspaces=1.0&amp;FingerJoint_edge_width=1.0&amp;FingerJoint_extra_length=0.0&amp;FingerJoint_finger=2.0&amp;FingerJoint_play=0.0&amp;FingerJoint_space=2.0&amp;FingerJoint_width=1.0&amp;h=32&amp;outside=0&amp;radius=50.0&amp;n=8&amp;top=none&amp;alignment_pins=1.0&amp;thickness=3.0&amp;format=svg&amp;tabs=0.0&amp;debug=0&amp;labels=0&amp;labels=1&amp;reference=100&amp;inner_corners=loop&amp;burn=0.1&amp;render=1</dc:source>
        <dc:description>Box with regular polygon as base

For short side walls that don't fit a connecting finger reduce *surroundingspaces* and *finger* in the Finger Joint Settings.

The lids needs to be glued. For the bayonet lid all outside rings attach to the bottom, all inside rings to the top.


Created with Boxes.py (https://festi.info/boxes.py)
Command line: boxes RegularBox --FingerJoint_angle=90.0 --FingerJoint_style=rectangular --FingerJoint_surroundingspaces=1.0 --FingerJoint_edge_width=1.0 --FingerJoint_extra_length=0.0 --FingerJoint_finger=2.0 --FingerJoint_play=0.0 --FingerJoint_space=2.0 --FingerJoint_width=1.0 --h=32 --outside=0 --radius=50.0 --n=8 --top=none --alignment_pins=1.0 --thickness=3.0 --format=svg --tabs=0.0 --debug=0 --labels=0 --labels=1 --reference=100 --inner_corners=loop --burn=0.1
Url: http://www.festi.info/RegularBox?FingerJoint_angle=90.0&amp;FingerJoint_style=rectangular&amp;FingerJoint_surroundingspaces=1.0&amp;FingerJoint_edge_width=1.0&amp;FingerJoint_extra_length=0.0&amp;FingerJoint_finger=2.0&amp;FingerJoint_play=0.0&amp;FingerJoint_space=2.0&amp;FingerJoint_width=1.0&amp;h=32&amp;outside=0&amp;radius=50.0&amp;n=8&amp;top=none&amp;alignment_pins=1.0&amp;thickness=3.0&amp;format=svg&amp;tabs=0.0&amp;debug=0&amp;labels=0&amp;labels=1&amp;reference=100&amp;inner_corners=loop&amp;burn=0.1&amp;render=1
SettingsUrl: http://www.festi.info/RegularBox?FingerJoint_angle=90.0&amp;FingerJoint_style=rectangular&amp;FingerJoint_surroundingspaces=1.0&amp;FingerJoint_edge_width=1.0&amp;FingerJoint_extra_length=0.0&amp;FingerJoint_finger=2.0&amp;FingerJoint_play=0.0&amp;FingerJoint_space=2.0&amp;FingerJoint_width=1.0&amp;h=32&amp;outside=0&amp;radius=50.0&amp;n=8&amp;top=none&amp;alignment_pins=1.0&amp;thickness=3.0&amp;format=svg&amp;tabs=0.0&amp;debug=0&amp;labels=0&amp;labels=1&amp;reference=100&amp;inner_corners=loop&amp;burn=0.1
</dc:description>
      </cc:Work>
    </rdf:RDF>
  </metadata>
  <g
     id="p-1"
     style="fill:none;stroke-linecap:round;stroke-linejoin:round;">
    <path
       d="M 40.460 145.288 H 44.594 C 44.649 145.288 44.694 145.243 44.694 145.188 V 142.288 C 44.694 142.188 44.594 142.288 44.694 142.288 H 50.494 C 50.594 142.288 50.494 142.188 50.494 142.288 V 145.188 C 50.494 145.243 50.539 145.288 50.594 145.288 H 56.594 C 56.649 145.288 56.694 145.243 56.694 145.188 V 142.288 C 56.694 142.188 56.594 142.288 56.694 142.288 H 62.494 C 62.594 142.288 62.494 142.188 62.494 142.288 V 145.188 C 62.494 145.243 62.539 145.288 62.594 145.288 H 68.594 C 68.649 145.288 68.694 145.243 68.694 145.188 V 142.288 C 68.694 142.188 68.594 142.288 68.694 142.288 H 74.494 C 74.594 142.288 74.494 142.188 74.494 142.288 V 145.188 C 74.494 145.243 74.539 145.288 74.594 145.288 H 78.728 H 79.971 C 79.997 145.288 80.023 145.277 80.041 145.259 L 80.920 144.380 L 83.843 141.457 C 83.883 141.418 83.883 141.354 83.843 141.315 L 81.793 139.265 C 81.722 139.194 81.722 139.335 81.793 139.265 L 85.894 135.163 C 85.965 135.093 85.823 135.093 85.894 135.163 L 87.945 137.214 C 87.984 137.253 88.047 137.253 88.086 137.214 L 92.329 132.971 C 92.368 132.932 92.368 132.869 92.329 132.830 L 90.278 130.779 C 90.207 130.709 90.207 130.850 90.278 130.779 L 94.379 126.678 C 94.450 126.607 94.309 126.607 94.379 126.678 L 96.430 128.729 C 96.469 128.768 96.532 128.768 96.571 128.729 L 100.814 124.486 C 100.853 124.447 100.853 124.384 100.814 124.345 L 98.763 122.294 C 98.693 122.223 98.693 122.365 98.763 122.294 L 102.865 118.193 C 102.935 118.122 102.794 118.122 102.865 118.193 L 104.915 120.243 C 104.954 120.283 105.018 120.283 105.057 120.243 L 107.980 117.320 L 108.859 116.441 C 108.877 116.423 108.888 116.397 108.888 116.371 V 115.128 V 110.994 C 108.888 110.939 108.843 110.894 108.788 110.894 H 105.888 C 105.788 110.894 105.888 110.994 105.888 110.894 V 105.094 C 105.888 104.994 105.788 105.094 105.888 105.094 H 108.788 C 108.843 105.094 108.888 105.049 108.888 104.994 V 98.994 C 108.888 98.939 108.843 98.894 108.788 98.894 H 105.888 C 105.788 98.894 105.888 98.994 105.888 98.894 V 93.094 C 105.888 92.994 105.788 93.094 105.888 93.094 H 108.788 C 108.843 93.094 108.888 93.049 108.888 92.994 V 86.994 C 108.888 86.939 108.843 86.894 108.788 86.894 H 105.888 C 105.788 86.894 105.888 86.994 105.888 86.894 V 81.094 C 105.888 80.994 105.788 81.094 105.888 81.094 H 108.788 C 108.843 81.094 108.888 81.049 108.888 80.994 V 76.860 V 75.617 C 108.888 75.591 108.877 75.565 108.859 75.546 L 107.980 74.668 L 105.057 71.744 C 105.018 71.705 104.954 71.705 104.915 71.744 L 102.865 73.795 C 102.794 73.866 102.935 73.866 102.865 73.795 L 98.763 69.694 C 98.693 69.623 98.693 69.765 98.763 69.694 L 100.814 67.643 C 100.853 67.604 100.853 67.541 100.814 67.502 L 96.571 63.259 C 96.532 63.220 96.469 63.220 96.430 63.259 L 94.379 65.310 C 94.309 65.381 94.450 65.381 94.379 65.310 L 90.278 61.209 C 90.207 61.138 90.207 61.279 90.278 61.209 L 92.329 59.158 C 92.368 59.119 92.368 59.056 92.329 59.017 L 88.086 54.774 C 88.047 54.735 87.984 54.735 87.945 54.774 L 85.894 56.825 C 85.823 56.895 85.965 56.895 85.894 56.825 L 81.793 52.723 C 81.722 52.653 81.722 52.794 81.793 52.723 L 83.843 50.673 C 83.883 50.634 83.883 50.570 83.843 50.531 L 80.920 47.608 L 80.041 46.729 C 80.023 46.711 79.997 46.700 79.971 46.700 H 78.728 H 74.594 C 74.539 46.700 74.494 46.745 74.494 46.800 V 49.700 C 74.494 49.800 74.594 49.700 74.494 49.700 H 68.694 C 68.594 49.700 68.694 49.800 68.694 49.700 V 46.800 C 68.694 46.745 68.649 46.700 68.594 46.700 H 62.594 C 62.539 46.700 62.494 46.745 62.494 46.800 V 49.700 C 62.494 49.800 62.594 49.700 62.494 49.700 H 56.694 C 56.594 49.700 56.694 49.800 56.694 49.700 V 46.800 C 56.694 46.745 56.649 46.700 56.594 46.700 H 50.594 C 50.539 46.700 50.494 46.745 50.494 46.800 V 49.700 C 50.494 49.800 50.594 49.700 50.494 49.700 H 44.694 C 44.594 49.700 44.694 49.800 44.694 49.700 V 46.800 C 44.694 46.745 44.649 46.700 44.594 46.700 H 40.460 H 39.217 C 39.191 46.700 39.165 46.711 39.146 46.729 L 38.268 47.608 L 35.344 50.531 C 35.305 50.570 35.305 50.634 35.344 50.673 L 37.395 52.723 C 37.466 52.794 37.466 52.653 37.395 52.723 L 33.294 56.825 C 33.223 56.895 33.365 56.895 33.294 56.825 L 31.243 54.774 C 31.204 54.735 31.141 54.735 31.102 54.774 L 26.859 59.017 C 26.820 59.056 26.820 59.119 26.859 59.158 L 28.910 61.209 C 28.981 61.279 28.981 61.138 28.910 61.209 L 24.809 65.310 C 24.738 65.381 24.879 65.381 24.809 65.310 L 22.758 63.259 C 22.719 63.220 22.656 63.220 22.617 63.259 L 18.374 67.502 C 18.335 67.541 18.335 67.604 18.374 67.643 L 20.425 69.694 C 20.495 69.765 20.495 69.623 20.425 69.694 L 16.323 73.795 C 16.253 73.866 16.394 73.866 16.323 73.795 L 14.273 71.744 C 14.234 71.705 14.170 71.705 14.131 71.744 L 11.208 74.668 L 10.329 75.546 C 10.311 75.565 10.300 75.591 10.300 75.617 V 76.860 V 80.994 C 10.300 81.049 10.345 81.094 10.400 81.094 H 13.300 C 13.400 81.094 13.300 80.994 13.300 81.094 V 86.894 C 13.300 86.994 13.400 86.894 13.300 86.894 H 10.400 C 10.345 86.894 10.300 86.939 10.300 86.994 V 92.994 C 10.300 93.049 10.345 93.094 10.400 93.094 H 13.300 C 13.400 93.094 13.300 92.994 13.300 93.094 V 98.894 C 13.300 98.994 13.400 98.894 13.300 98.894 H 10.400 C 10.345 98.894 10.300 98.939 10.300 98.994 V 104.994 C 10.300 105.049 10.345 105.094 10.400 105.094 H 13.300 C 13.400 105.094 13.300 104.994 13.300 105.094 V 110.894 C 13.300 110.994 13.400 110.894 13.300 110.894 H 10.400 C 10.345 110.894 10.300 110.939 10.300 110.994 V 115.128 V 116.371 C 10.300 116.397 10.311 116.423 10.329 116.441 L 11.208 117.320 L 14.131 120.243 C 14.170 120.283 14.234 120.283 14.273 120.243 L 16.323 118.193 C 16.394 118.122 16.253 118.122 16.323 118.193 L 20.425 122.294 C 20.495 122.365 20.495 122.223 20.425 122.294 L 18.374 124.345 C 18.335 124.384 18.335 124.447 18.374 124.486 L 22.617 128.729 C 22.656 128.768 22.719 128.768 22.758 128.729 L 24.809 126.678 C 24.879 126.607 24.738 126.607 24.809 126.678 L 28.910 130.779 C 28.981 130.850 28.981 130.709 28.910 130.779 L 26.859 132.830 C 26.820 132.869 26.820 132.932 26.859 132.971 L 31.102 137.214 C 31.141 137.253 31.204 137.253 31.243 137.214 L 33.294 135.163 C 33.365 135.093 33.223 135.093 33.294 135.163 L 37.395 139.265 C 37.466 139.335 37.466 139.194 37.395 139.265 L 35.344 141.315 C 35.305 141.354 35.305 141.418 35.344 141.457 L 38.268 144.380 L 39.146 145.259 C 39.165 145.277 39.191 145.288 39.217 145.288 H 40.460 Z"
       stroke="rgb(0,0,0)"
       stroke-width="0.20"
       id="path85" />
  </g>
  <g
     id="p-2"
     style="fill:none;stroke-linecap:round;stroke-linejoin:round;">
    <path
       d="M 11.643 42.200 H 15.677 C 15.777 42.200 15.677 42.100 15.677 42.200 V 45.100 C 15.677 45.155 15.722 45.200 15.777 45.200 H 21.777 C 21.832 45.200 21.877 45.155 21.877 45.100 V 42.200 C 21.877 42.100 21.777 42.200 21.877 42.200 H 27.677 C 27.777 42.200 27.677 42.100 27.677 42.200 V 45.100 C 27.677 45.155 27.722 45.200 27.777 45.200 H 33.777 C 33.832 45.200 33.877 45.155 33.877 45.100 V 42.200 C 33.877 42.100 33.777 42.200 33.877 42.200 H 39.677 C 39.777 42.200 39.677 42.100 39.677 42.200 V 45.100 C 39.677 45.155 39.722 45.200 39.777 45.200 H 45.777 C 45.832 45.200 45.877 45.155 45.877 45.100 V 42.200 C 45.877 42.100 45.777 42.200 45.877 42.200 H 49.911 H 51.154 C 51.209 42.200 51.254 42.155 51.254 42.100 V 35.100 C 51.254 35.045 51.209 35.000 51.154 35.000 H 49.132 C 49.032 35.000 49.132 35.100 49.132 35.000 V 29.200 C 49.132 29.100 49.032 29.200 49.132 29.200 H 51.154 C 51.209 29.200 51.254 29.155 51.254 29.100 V 23.100 C 51.254 23.045 51.209 23.000 51.154 23.000 H 49.132 C 49.032 23.000 49.132 23.100 49.132 23.000 V 17.200 C 49.132 17.100 49.032 17.200 49.132 17.200 H 51.154 C 51.209 17.200 51.254 17.155 51.254 17.100 V 10.100 C 51.254 10.045 51.209 10.000 51.154 10.000 H 49.911 H 11.643 H 10.400 C 10.345 10.000 10.300 10.045 10.300 10.100 V 17.100 C 10.300 17.155 10.345 17.200 10.400 17.200 H 12.421 C 12.521 17.200 12.421 17.100 12.421 17.200 V 23.000 C 12.421 23.100 12.521 23.000 12.421 23.000 H 10.400 C 10.345 23.000 10.300 23.045 10.300 23.100 V 29.100 C 10.300 29.155 10.345 29.200 10.400 29.200 H 12.421 C 12.521 29.200 12.421 29.100 12.421 29.200 V 35.000 C 12.421 35.100 12.521 35.000 12.421 35.000 H 10.400 C 10.345 35.000 10.300 35.045 10.300 35.100 V 42.100 C 10.300 42.155 10.345 42.200 10.400 42.200 H 11.643 Z"
       stroke="rgb(0,0,0)"
       stroke-width="0.20"
       id="path88" />
  </g>
  <g
     id="p-3"
     style="fill:none;stroke-linecap:round;stroke-linejoin:round;">
    <path
       d="M 54.096 42.200 H 58.130 C 58.230 42.200 58.130 42.100 58.130 42.200 V 45.100 C 58.130 45.155 58.175 45.200 58.230 45.200 H 64.230 C 64.286 45.200 64.330 45.155 64.330 45.100 V 42.200 C 64.330 42.100 64.230 42.200 64.330 42.200 H 70.130 C 70.230 42.200 70.130 42.100 70.130 42.200 V 45.100 C 70.130 45.155 70.175 45.200 70.230 45.200 H 76.230 C 76.286 45.200 76.330 45.155 76.330 45.100 V 42.200 C 76.330 42.100 76.230 42.200 76.330 42.200 H 82.130 C 82.230 42.200 82.130 42.100 82.130 42.200 V 45.100 C 82.130 45.155 82.175 45.200 82.230 45.200 H 88.230 C 88.286 45.200 88.330 45.155 88.330 45.100 V 42.200 C 88.330 42.100 88.230 42.200 88.330 42.200 H 92.365 H 91.486 C 91.541 42.200 91.586 42.155 91.586 42.100 V 35.200 C 91.586 35.100 91.486 35.200 91.586 35.200 H 93.607 C 93.662 35.200 93.707 35.155 93.707 35.100 V 29.100 C 93.707 29.045 93.662 29.000 93.607 29.000 H 91.586 C 91.486 29.000 91.586 29.100 91.586 29.000 V 23.200 C 91.586 23.100 91.486 23.200 91.586 23.200 H 93.607 C 93.662 23.200 93.707 23.155 93.707 23.100 V 17.100 C 93.707 17.045 93.662 17.000 93.607 17.000 H 91.586 C 91.486 17.000 91.586 17.100 91.586 17.000 V 10.100 C 91.586 10.045 91.541 10.000 91.486 10.000 H 92.365 H 54.096 H 54.975 C 54.920 10.000 54.875 10.045 54.875 10.100 V 17.000 C 54.875 17.100 54.975 17.000 54.875 17.000 H 52.854 C 52.798 17.000 52.754 17.045 52.754 17.100 V 23.100 C 52.754 23.155 52.798 23.200 52.854 23.200 H 54.875 C 54.975 23.200 54.875 23.100 54.875 23.200 V 29.000 C 54.875 29.100 54.975 29.000 54.875 29.000 H 52.854 C 52.798 29.000 52.754 29.045 52.754 29.100 V 35.100 C 52.754 35.155 52.798 35.200 52.854 35.200 H 54.875 C 54.975 35.200 54.875 35.100 54.875 35.200 V 42.100 C 54.875 42.155 54.920 42.200 54.975 42.200 H 54.096 Z"
       stroke="rgb(0,0,0)"
       stroke-width="0.20"
       id="path91" />
  </g>
  <g
     id="p-4"
     style="fill:none;stroke-linecap:round;stroke-linejoin:round;">
    <path
       d="M 96.550 42.200 H 100.584 C 100.684 42.200 100.584 42.100 100.584 42.200 V 45.100 C 100.584 45.155 100.629 45.200 100.684 45.200 H 106.684 C 106.739 45.200 106.784 45.155 106.784 45.100 V 42.200 C 106.784 42.100 106.684 42.200 106.784 42.200 H 112.584 C 112.684 42.200 112.584 42.100 112.584 42.200 V 45.100 C 112.584 45.155 112.629 45.200 112.684 45.200 H 118.684 C 118.739 45.200 118.784 45.155 118.784 45.100 V 42.200 C 118.784 42.100 118.684 42.200 118.784 42.200 H 124.584 C 124.684 42.200 124.584 42.100 124.584 42.200 V 45.100 C 124.584 45.155 124.629 45.200 124.684 45.200 H 130.684 C 130.739 45.200 130.784 45.155 130.784 45.100 V 42.200 C 130.784 42.100 130.684 42.200 130.784 42.200 H 134.818 H 136.061 C 136.116 42.200 136.161 42.155 136.161 42.100 V 35.100 C 136.161 35.045 136.116 35.000 136.061 35.000 H 134.040 C 133.940 35.000 134.040 35.100 134.040 35.000 V 29.200 C 134.040 29.100 133.940 29.200 134.040 29.200 H 136.061 C 136.116 29.200 136.161 29.155 136.161 29.100 V 23.100 C 136.161 23.045 136.116 23.000 136.061 23.000 H 134.040 C 133.940 23.000 134.040 23.100 134.040 23.000 V 17.200 C 134.040 17.100 133.940 17.200 134.040 17.200 H 136.061 C 136.116 17.200 136.161 17.155 136.161 17.100 V 10.100 C 136.161 10.045 136.116 10.000 136.061 10.000 H 134.818 H 96.550 H 95.307 C 95.252 10.000 95.207 10.045 95.207 10.100 V 17.100 C 95.207 17.155 95.252 17.200 95.307 17.200 H 97.329 C 97.429 17.200 97.329 17.100 97.329 17.200 V 23.000 C 97.329 23.100 97.429 23.000 97.329 23.000 H 95.307 C 95.252 23.000 95.207 23.045 95.207 23.100 V 29.100 C 95.207 29.155 95.252 29.200 95.307 29.200 H 97.329 C 97.429 29.200 97.329 29.100 97.329 29.200 V 35.000 C 97.329 35.100 97.429 35.000 97.329 35.000 H 95.307 C 95.252 35.000 95.207 35.045 95.207 35.100 V 42.100 C 95.207 42.155 95.252 42.200 95.307 42.200 H 96.550 Z"
       stroke="rgb(0,0,0)"
       stroke-width="0.20"
       id="path94" />
  </g>
  <g
     id="p-5"
     style="fill:none;stroke-linecap:round;stroke-linejoin:round;">
    <path
       d="M 139.004 42.200 H 143.038 C 143.138 42.200 143.038 42.100 143.038 42.200 V 45.100 C 143.038 45.155 143.082 45.200 143.138 45.200 H 149.138 C 149.193 45.200 149.238 45.155 149.238 45.100 V 42.200 C 149.238 42.100 149.138 42.200 149.238 42.200 H 155.038 C 155.138 42.200 155.038 42.100 155.038 42.200 V 45.100 C 155.038 45.155 155.082 45.200 155.138 45.200 H 161.138 C 161.193 45.200 161.238 45.155 161.238 45.100 V 42.200 C 161.238 42.100 161.138 42.200 161.238 42.200 H 167.038 C 167.138 42.200 167.038 42.100 167.038 42.200 V 45.100 C 167.038 45.155 167.082 45.200 167.138 45.200 H 173.138 C 173.193 45.200 173.238 45.155 173.238 45.100 V 42.200 C 173.238 42.100 173.138 42.200 173.238 42.200 H 177.272 H 176.393 C 176.448 42.200 176.493 42.155 176.493 42.100 V 35.200 C 176.493 35.100 176.393 35.200 176.493 35.200 H 178.514 C 178.570 35.200 178.614 35.155 178.614 35.100 V 29.100 C 178.614 29.045 178.570 29.000 178.514 29.000 H 176.493 C 176.393 29.000 176.493 29.100 176.493 29.000 V 23.200 C 176.493 23.100 176.393 23.200 176.493 23.200 H 178.514 C 178.570 23.200 178.614 23.155 178.614 23.100 V 17.100 C 178.614 17.045 178.570 17.000 178.514 17.000 H 176.493 C 176.393 17.000 176.493 17.100 176.493 17.000 V 10.100 C 176.493 10.045 176.448 10.000 176.393 10.000 H 177.272 H 139.004 H 139.882 C 139.827 10.000 139.782 10.045 139.782 10.100 V 17.000 C 139.782 17.100 139.882 17.000 139.782 17.000 H 137.761 C 137.706 17.000 137.661 17.045 137.661 17.100 V 23.100 C 137.661 23.155 137.706 23.200 137.761 23.200 H 139.782 C 139.882 23.200 139.782 23.100 139.782 23.200 V 29.000 C 139.782 29.100 139.882 29.000 139.782 29.000 H 137.761 C 137.706 29.000 137.661 29.045 137.661 29.100 V 35.100 C 137.661 35.155 137.706 35.200 137.761 35.200 H 139.782 C 139.882 35.200 139.782 35.100 139.782 35.200 V 42.100 C 139.782 42.155 139.827 42.200 139.882 42.200 H 139.004 Z"
       stroke="rgb(0,0,0)"
       stroke-width="0.20"
       id="path97" />
  </g>
  <g
     id="p-6"
     style="fill:none;stroke-linecap:round;stroke-linejoin:round;">
    <path
       d="M 181.457 42.200 H 185.491 C 185.591 42.200 185.491 42.100 185.491 42.200 V 45.100 C 185.491 45.155 185.536 45.200 185.591 45.200 H 191.591 C 191.647 45.200 191.691 45.155 191.691 45.100 V 42.200 C 191.691 42.100 191.591 42.200 191.691 42.200 H 197.491 C 197.591 42.200 197.491 42.100 197.491 42.200 V 45.100 C 197.491 45.155 197.536 45.200 197.591 45.200 H 203.591 C 203.647 45.200 203.691 45.155 203.691 45.100 V 42.200 C 203.691 42.100 203.591 42.200 203.691 42.200 H 209.491 C 209.591 42.200 209.491 42.100 209.491 42.200 V 45.100 C 209.491 45.155 209.536 45.200 209.591 45.200 H 215.591 C 215.647 45.200 215.691 45.155 215.691 45.100 V 42.200 C 215.691 42.100 215.591 42.200 215.691 42.200 H 219.725 H 220.968 C 221.023 42.200 221.068 42.155 221.068 42.100 V 35.100 C 221.068 35.045 221.023 35.000 220.968 35.000 H 218.947 C 218.847 35.000 218.947 35.100 218.947 35.000 V 29.200 C 218.947 29.100 218.847 29.200 218.947 29.200 H 220.968 C 221.023 29.200 221.068 29.155 221.068 29.100 V 23.100 C 221.068 23.045 221.023 23.000 220.968 23.000 H 218.947 C 218.847 23.000 218.947 23.100 218.947 23.000 V 17.200 C 218.947 17.100 218.847 17.200 218.947 17.200 H 220.968 C 221.023 17.200 221.068 17.155 221.068 17.100 V 10.100 C 221.068 10.045 221.023 10.000 220.968 10.000 H 219.725 H 181.457 H 180.214 C 180.159 10.000 180.114 10.045 180.114 10.100 V 17.100 C 180.114 17.155 180.159 17.200 180.214 17.200 H 182.236 C 182.336 17.200 182.236 17.100 182.236 17.200 V 23.000 C 182.236 23.100 182.336 23.000 182.236 23.000 H 180.214 C 180.159 23.000 180.114 23.045 180.114 23.100 V 29.100 C 180.114 29.155 180.159 29.200 180.214 29.200 H 182.236 C 182.336 29.200 182.236 29.100 182.236 29.200 V 35.000 C 182.236 35.100 182.336 35.000 182.236 35.000 H 180.214 C 180.159 35.000 180.114 35.045 180.114 35.100 V 42.100 C 180.114 42.155 180.159 42.200 180.214 42.200 H 181.457 Z"
       stroke="rgb(0,0,0)"
       stroke-width="0.20"
       id="path100" />
  </g>
  <g
     id="p-7"
     style="fill:none;stroke-linecap:round;stroke-linejoin:round;">
    <path
       d="M 223.911 42.200 H 227.945 C 228.045 42.200 227.945 42.100 227.945 42.200 V 45.100 C 227.945 45.155 227.990 45.200 228.045 45.200 H 234.045 C 234.100 45.200 234.145 45.155 234.145 45.100 V 42.200 C 234.145 42.100 234.045 42.200 234.145 42.200 H 239.945 C 240.045 42.200 239.945 42.100 239.945 42.200 V 45.100 C 239.945 45.155 239.990 45.200 240.045 45.200 H 246.045 C 246.100 45.200 246.145 45.155 246.145 45.100 V 42.200 C 246.145 42.100 246.045 42.200 246.145 42.200 H 251.945 C 252.045 42.200 251.945 42.100 251.945 42.200 V 45.100 C 251.945 45.155 251.990 45.200 252.045 45.200 H 258.045 C 258.100 45.200 258.145 45.155 258.145 45.100 V 42.200 C 258.145 42.100 258.045 42.200 258.145 42.200 H 262.179 H 261.300 C 261.356 42.200 261.400 42.155 261.400 42.100 V 35.200 C 261.400 35.100 261.300 35.200 261.400 35.200 H 263.422 C 263.477 35.200 263.522 35.155 263.522 35.100 V 29.100 C 263.522 29.045 263.477 29.000 263.422 29.000 H 261.400 C 261.300 29.000 261.400 29.100 261.400 29.000 V 23.200 C 261.400 23.100 261.300 23.200 261.400 23.200 H 263.422 C 263.477 23.200 263.522 23.155 263.522 23.100 V 17.100 C 263.522 17.045 263.477 17.000 263.422 17.000 H 261.400 C 261.300 17.000 261.400 17.100 261.400 17.000 V 10.100 C 261.400 10.045 261.356 10.000 261.300 10.000 H 262.179 H 223.911 H 224.789 C 224.734 10.000 224.689 10.045 224.689 10.100 V 17.000 C 224.689 17.100 224.789 17.000 224.689 17.000 H 222.668 C 222.613 17.000 222.568 17.045 222.568 17.100 V 23.100 C 222.568 23.155 222.613 23.200 222.668 23.200 H 224.689 C 224.789 23.200 224.689 23.100 224.689 23.200 V 29.000 C 224.689 29.100 224.789 29.000 224.689 29.000 H 222.668 C 222.613 29.000 222.568 29.045 222.568 29.100 V 35.100 C 222.568 35.155 222.613 35.200 222.668 35.200 H 224.689 C 224.789 35.200 224.689 35.100 224.689 35.200 V 42.100 C 224.689 42.155 224.734 42.200 224.789 42.200 H 223.911 Z"
       stroke="rgb(0,0,0)"
       stroke-width="0.20"
       id="path103" />
  </g>
  <g
     id="p-8"
     style="fill:none;stroke-linecap:round;stroke-linejoin:round;">
    <path
       d="M 266.364 42.200 H 270.399 C 270.499 42.200 270.399 42.100 270.399 42.200 V 45.100 C 270.399 45.155 270.443 45.200 270.499 45.200 H 276.499 C 276.554 45.200 276.599 45.155 276.599 45.100 V 42.200 C 276.599 42.100 276.499 42.200 276.599 42.200 H 282.399 C 282.499 42.200 282.399 42.100 282.399 42.200 V 45.100 C 282.399 45.155 282.443 45.200 282.499 45.200 H 288.499 C 288.554 45.200 288.599 45.155 288.599 45.100 V 42.200 C 288.599 42.100 288.499 42.200 288.599 42.200 H 294.399 C 294.499 42.200 294.399 42.100 294.399 42.200 V 45.100 C 294.399 45.155 294.443 45.200 294.499 45.200 H 300.499 C 300.554 45.200 300.599 45.155 300.599 45.100 V 42.200 C 300.599 42.100 300.499 42.200 300.599 42.200 H 304.633 H 305.875 C 305.931 42.200 305.975 42.155 305.975 42.100 V 35.100 C 305.975 35.045 305.931 35.000 305.875 35.000 H 303.854 C 303.754 35.000 303.854 35.100 303.854 35.000 V 29.200 C 303.854 29.100 303.754 29.200 303.854 29.200 H 305.875 C 305.931 29.200 305.975 29.155 305.975 29.100 V 23.100 C 305.975 23.045 305.931 23.000 305.875 23.000 H 303.854 C 303.754 23.000 303.854 23.100 303.854 23.000 V 17.200 C 303.854 17.100 303.754 17.200 303.854 17.200 H 305.875 C 305.931 17.200 305.975 17.155 305.975 17.100 V 10.100 C 305.975 10.045 305.931 10.000 305.875 10.000 H 304.633 H 266.364 H 265.122 C 265.067 10.000 265.022 10.045 265.022 10.100 V 17.100 C 265.022 17.155 265.067 17.200 265.122 17.200 H 267.143 C 267.243 17.200 267.143 17.100 267.143 17.200 V 23.000 C 267.143 23.100 267.243 23.000 267.143 23.000 H 265.122 C 265.067 23.000 265.022 23.045 265.022 23.100 V 29.100 C 265.022 29.155 265.067 29.200 265.122 29.200 H 267.143 C 267.243 29.200 267.143 29.100 267.143 29.200 V 35.000 C 267.143 35.100 267.243 35.000 267.143 35.000 H 265.122 C 265.067 35.000 265.022 35.045 265.022 35.100 V 42.100 C 265.022 42.155 265.067 42.200 265.122 42.200 H 266.364 Z"
       stroke="rgb(0,0,0)"
       stroke-width="0.20"
       id="path106" />
  </g>
  <g
     id="p-9"
     style="fill:none;stroke-linecap:round;stroke-linejoin:round;">
    <path
       d="M 308.818 42.200 H 312.852 C 312.952 42.200 312.852 42.100 312.852 42.200 V 45.100 C 312.852 45.155 312.897 45.200 312.952 45.200 H 318.952 C 319.007 45.200 319.052 45.155 319.052 45.100 V 42.200 C 319.052 42.100 318.952 42.200 319.052 42.200 H 324.852 C 324.952 42.200 324.852 42.100 324.852 42.200 V 45.100 C 324.852 45.155 324.897 45.200 324.952 45.200 H 330.952 C 331.007 45.200 331.052 45.155 331.052 45.100 V 42.200 C 331.052 42.100 330.952 42.200 331.052 42.200 H 336.852 C 336.952 42.200 336.852 42.100 336.852 42.200 V 45.100 C 336.852 45.155 336.897 45.200 336.952 45.200 H 342.952 C 343.007 45.200 343.052 45.155 343.052 45.100 V 42.200 C 343.052 42.100 342.952 42.200 343.052 42.200 H 347.086 H 346.208 C 346.263 42.200 346.308 42.155 346.308 42.100 V 35.200 C 346.308 35.100 346.208 35.200 346.308 35.200 H 348.329 C 348.384 35.200 348.429 35.155 348.429 35.100 V 29.100 C 348.429 29.045 348.384 29.000 348.329 29.000 H 346.308 C 346.208 29.000 346.308 29.100 346.308 29.000 V 23.200 C 346.308 23.100 346.208 23.200 346.308 23.200 H 348.329 C 348.384 23.200 348.429 23.155 348.429 23.100 V 17.100 C 348.429 17.045 348.384 17.000 348.329 17.000 H 346.308 C 346.208 17.000 346.308 17.100 346.308 17.000 V 10.100 C 346.308 10.045 346.263 10.000 346.208 10.000 H 347.086 H 308.818 H 309.697 C 309.641 10.000 309.597 10.045 309.597 10.100 V 17.000 C 309.597 17.100 309.697 17.000 309.597 17.000 H 307.575 C 307.520 17.000 307.475 17.045 307.475 17.100 V 23.100 C 307.475 23.155 307.520 23.200 307.575 23.200 H 309.597 C 309.697 23.200 309.597 23.100 309.597 23.200 V 29.000 C 309.597 29.100 309.697 29.000 309.597 29.000 H 307.575 C 307.520 29.000 307.475 29.045 307.475 29.100 V 35.100 C 307.475 35.155 307.520 35.200 307.575 35.200 H 309.597 C 309.697 35.200 309.597 35.100 309.597 35.200 V 42.100 C 309.597 42.155 309.641 42.200 309.697 42.200 H 308.818 Z"
       stroke="rgb(0,0,0)"
       stroke-width="0.20"
       id="path109" />
  </g>
</svg>
